<?xml version="1.0" standalone="no"?>
<!DOCTYPE svg PUBLIC "-//W3C//DTD SVG 20010904//EN"
 "http://www.w3.org/TR/2001/REC-SVG-20010904/DTD/svg10.dtd">
<svg version="1.0" xmlns="http://www.w3.org/2000/svg" viewBox="0 0 1200.000000 1200.000000"
 preserveAspectRatio="xMidYMid meet">

<g transform="translate(0.000000,1200.000000) scale(0.100000,-0.100000)" stroke="none">
<path d="M5880 10924 c-327 -27 -494 -53 -708 -109 -335 -88 -666 -241 -903
-416 -67 -50 -85 -69 -106 -115 -74 -161 35 -336 210 -337 72 0 81 4 232 105
133 88 237 143 382 202 572 230 1280 260 1899 82 208 -60 374 -132 563 -244
85 -51 101 -57 160 -60 88 -5 161 31 208 101 77 115 46 254 -76 336 -322 219
-794 379 -1286 436 -127 15 -486 27 -575 19z"/>
<path d="M5750 9659 c-326 -35 -662 -136 -885 -265 -140 -81 -179 -134 -179
-244 0 -111 71 -205 176 -230 73 -18 116 -7 261 69 281 147 535 204 912 204
357 0 626 -57 908 -194 120 -58 210 -52 289 19 54 48 78 102 78 175 0 112 -47
175 -180 242 -192 96 -445 173 -690 210 -134 20 -554 29 -690 14z"/>
<path d="M5785 8333 c-369 -43 -580 -119 -976 -348 -379 -219 -420 -257 -544
-505 -26 -52 -89 -153 -140 -225 -155 -216 -203 -319 -255 -547 -34 -147 -43
-172 -103 -270 -48 -80 -48 -79 -166 -375 -100 -250 -120 -320 -161 -552 -18
-102 -39 -203 -46 -224 -8 -22 -14 -55 -14 -75 l0 -35 -227 7 c-443 13 -822
27 -1153 41 -372 17 -411 14 -517 -36 -174 -83 -267 -253 -248 -453 14 -151
77 -277 189 -383 113 -107 190 -134 536 -187 185 -29 724 -90 930 -105 832
-64 4413 -76 5835 -21 501 20 1246 101 1568 170 139 30 197 61 281 150 149
159 217 353 182 518 -37 179 -151 296 -331 342 -72 18 -111 20 -494 20 -256 0
-430 -4 -453 -10 -55 -16 -119 -69 -146 -122 -49 -95 -24 -222 56 -288 69 -57
97 -60 514 -60 l379 0 -18 -31 c-10 -17 -23 -35 -30 -40 -17 -15 -192 -45
-458 -79 -835 -108 -1335 -125 -3780 -125 -2372 0 -2877 16 -3655 111 -458 55
-583 82 -615 130 -9 14 -14 28 -11 31 2 3 112 0 243 -6 1146 -53 2715 -78
3828 -62 509 8 731 14 758 23 53 16 121 79 141 129 45 112 6 236 -94 296 l-52
32 -1072 -6 c-589 -3 -1192 -2 -1339 2 -267 7 -269 7 -264 29 10 46 37 188 62
321 23 120 40 174 122 380 52 132 118 281 147 330 68 119 90 175 122 308 55
237 82 294 237 502 37 50 98 151 137 227 l70 136 78 49 c103 66 357 211 457
261 332 166 757 206 1125 106 30 -8 122 -36 203 -61 l148 -47 56 -65 c70 -83
118 -127 164 -151 20 -10 83 -63 140 -117 63 -59 125 -107 156 -122 48 -22 55
-31 134 -163 46 -76 123 -190 172 -251 124 -157 147 -202 217 -437 68 -225
101 -304 158 -377 65 -82 70 -94 102 -247 31 -148 102 -350 156 -444 89 -153
328 -141 408 20 41 82 36 131 -28 295 -36 91 -62 177 -76 253 -35 188 -70 274
-152 372 -49 60 -55 75 -118 289 -70 237 -137 374 -268 539 -54 69 -134 185
-178 259 -94 161 -160 236 -246 281 -37 19 -100 68 -150 116 -48 46 -111 99
-140 118 -29 18 -80 66 -113 105 -62 75 -110 118 -160 143 -48 25 -360 125
-486 157 -188 48 -304 61 -515 60 -104 -1 -202 -4 -219 -6z"/>
<path d="M4784 6876 c-29 -29 -34 -41 -34 -81 0 -40 5 -52 34 -81 l34 -34 166
0 c185 0 214 7 241 60 30 57 10 127 -45 155 -22 12 -66 15 -196 15 l-166 0
-34 -34z"/>
<path d="M6815 6696 c-87 -38 -87 -169 0 -210 31 -15 64 -17 236 -14 l201 3
34 37 c38 42 45 88 19 137 -27 53 -63 61 -272 61 -133 -1 -197 -5 -218 -14z"/>
<path d="M5773 6296 c-77 -35 -93 -130 -34 -190 l31 -31 141 0 141 0 29 32
c37 42 45 75 28 120 -25 65 -54 78 -187 81 -85 1 -126 -2 -149 -12z"/>
<path d="M4704 5766 c-29 -29 -34 -41 -34 -81 0 -40 5 -52 34 -81 l34 -34 206
0 c228 0 253 5 281 60 30 57 10 127 -45 155 -23 12 -70 15 -236 15 l-206 0
-34 -34z"/>
<path d="M4088 3335 c-440 -72 -798 -397 -915 -832 -25 -90 -27 -114 -27 -288
0 -175 2 -198 27 -290 32 -118 116 -293 186 -386 241 -318 635 -492 1024 -450
365 40 683 245 867 561 71 123 119 268 145 441 5 36 7 37 58 43 28 3 167 11
307 16 243 9 612 1 774 -18 l60 -7 17 -97 c83 -469 423 -821 894 -924 106 -23
340 -23 443 0 237 52 420 152 582 316 340 343 425 850 216 1285 -117 243 -293
418 -537 534 -307 146 -656 147 -966 1 -236 -111 -448 -325 -549 -558 l-34
-77 -42 0 c-24 1 -120 6 -215 13 -272 19 -897 11 -1036 -13 -26 -4 -29 0 -67
81 -147 318 -442 559 -780 635 -114 26 -319 33 -432 14z"/>
</g>
</svg>
